<svg width="256" height="37" viewBox="0 0 256 37" fill="none" xmlns="http://www.w3.org/2000/svg">
<path d="M125.323 15.0396V21.4326H119.57V17.8485C118.061 20.3016 115.348 21.7302 112.109 21.7302C106.829 21.7302 103.793 17.8485 103.793 12.8665C103.793 7.88448 106.949 3.8824 112.583 3.8824C115.585 3.8824 117.824 5.31097 119.231 7.76413H119.57V0.347412H125.323V15.0396ZM113.312 12.7461C113.312 15.3789 114.719 17.6596 117.35 17.6596C119.981 17.6596 121.268 15.3789 121.268 12.7461C121.268 9.99285 119.981 7.71216 117.35 7.71216C114.719 7.71216 113.312 9.99285 113.312 12.7461Z" fill="white"/>
<path d="M139.73 10.7969C139.73 6.13349 136.91 3.88232 132.247 3.88232C127.584 3.88232 124.764 6.13349 124.764 10.7969V21.4325H129.427V11.2708C129.427 8.39803 130.477 7.71216 132.247 7.71216C133.957 7.71216 135.073 8.39803 135.073 11.2708V21.4325H139.73V10.7969Z" fill="white"/>
<path d="M141.289 0.347412H145.952V21.4325H141.289V0.347412Z" fill="white"/>
<path d="M161.439 12.7461C161.439 15.3789 162.846 17.6596 165.477 17.6596C168.108 17.6596 169.395 15.3789 169.395 12.7461C169.395 9.99285 168.108 7.71216 165.477 7.71216C162.846 7.71216 161.439 9.99285 161.439 12.7461ZM155.686 21.4325H160.229L160.408 19.3972H160.528C161.875 21.1953 164.25 21.7302 166.383 21.7302C171.189 21.7302 175.144 17.9689 175.144 12.8665C175.144 7.88448 171.426 3.8824 166.044 3.8824C163.805 3.8824 161.755 4.6285 160.528 6.30594H160.408L160.229 4.18009H155.686V21.4325Z" fill="white"/>
<path d="M189.544 10.7969C189.544 6.13349 186.724 3.88232 182.061 3.88232C177.398 3.88232 174.578 6.13349 174.578 10.7969V21.4325H179.241V11.2708C179.241 8.39803 180.291 7.71216 182.061 7.71216C183.771 7.71216 184.887 8.39803 184.887 11.2708V21.4325H189.544V10.7969Z" fill="white"/>
<path d="M208.529 4.18009V21.4325H203.866V4.18009H195.962V0.347412H216.432V4.18009H208.529Z" fill="white"/>
<path d="M233.155 15.0396V21.4326H227.399V17.8485C225.89 20.3016 223.177 21.7302 219.938 21.7302C214.658 21.7302 211.622 17.8485 211.622 12.8665C211.622 7.88448 214.778 3.8824 220.412 3.8824C223.414 3.8824 225.653 5.31097 227.06 7.76413H227.399V0.347412H233.155V15.0396ZM221.141 12.7461C221.141 15.3789 222.548 17.6596 225.179 17.6596C227.81 17.6596 229.097 15.3789 229.097 12.7461C229.097 9.99285 227.81 7.71216 225.179 7.71216C222.548 7.71216 221.141 9.99285 221.141 12.7461Z" fill="white"/>
<path d="M255.438 4.18009L247.654 21.4325H242.618L250.342 4.18009H255.438Z" fill="white"/>
<path d="M57.4474 15.0396V21.4326H51.6917V17.8485C50.1825 20.3016 47.4698 21.7302 44.2307 21.7302C38.9511 21.7302 35.9142 17.8485 35.9142 12.8665C35.9142 7.88448 39.0706 3.8824 44.7045 3.8824C47.7063 3.8824 49.9455 5.31097 51.3524 7.76413H51.6917V0.347412H57.4474V15.0396ZM45.4336 12.7461C45.4336 15.3789 46.8405 17.6596 49.4714 17.6596C52.1023 17.6596 53.3897 15.3789 53.3897 12.7461C53.3897 9.99285 52.1023 7.71216 49.4714 7.71216C46.8405 7.71216 45.4336 9.99285 45.4336 12.7461Z" fill="white"/>
<path d="M84.7709 21.4325H89.4339L84.8913 12.8063C87.4018 12.2111 88.4522 10.1367 88.4522 7.88448C88.4522 4.73838 86.273 3.88232 82.5552 3.88232H75.3096V21.4325H79.9726V10.1969H82.4949L87.1579 21.4325H92.058L86.5891 10.8571C88.6395 10.1367 89.8184 8.5776 89.8184 6.78913C89.8184 4.56807 87.8164 3.19973 85.0632 3.01045C87.4319 2.95022 89.5726 4.18009 89.5726 6.55184C89.5726 8.5776 88.3334 10.0765 86.283 10.7366L84.7709 21.4325ZM79.9726 8.21846V5.96729H82.4347C83.8416 5.96729 84.4947 6.44195 84.4947 7.15248C84.4947 7.86301 83.8416 8.21846 82.4347 8.21846H79.9726Z" fill="white"/>
<path d="M18.8471 28.7895C18.8471 32.3213 16.3359 36.1953 9.42354 36.1953C2.51121 36.1953 0 32.3213 0 28.7895V0.347412H5.75564V28.3156C5.75564 30.6874 6.80608 31.9748 9.42354 31.9748C12.041 31.9748 13.0914 30.6874 13.0914 28.3156V0.347412H18.8471V28.7895Z" fill="#00A99D"/>
</svg>