<svg width="102.7" height="25" viewBox="0 0 1027 250" fill="none" xmlns="http://www.w3.org/2000/svg">
<path d="M572 138.9C572 173.9 547 197.9 511.5 197.9C476.5 197.9 451.5 173.9 451.5 138.9C451.5 103.4 476.5 79.9 511.5 79.9C547 79.9 572 103.4 572 138.9ZM538 138.9C538 120.4 526.5 108.9 511.5 108.9C497 108.9 485.5 120.4 485.5 138.9C485.5 157.4 497 168.9 511.5 168.9C526.5 168.9 538 157.4 538 138.9Z" fill="#231F20"/>
<path d="M601.3 81.7H626.8V196.2H601.3V81.7Z" fill="#231F20"/>
<path d="M699.5 138.9C699.5 173.9 674.5 197.9 639 197.9C603.5 197.9 578.5 173.9 578.5 138.9C578.5 103.4 603.5 79.9 639 79.9C674.5 79.9 699.5 103.4 699.5 138.9ZM665.5 138.9C665.5 120.4 654 108.9 639 108.9C624 108.9 612.5 120.4 612.5 138.9C612.5 157.4 624 168.9 639 168.9C654 168.9 665.5 157.4 665.5 138.9Z" fill="#231F20"/>
<path d="M784.8 196.2L759.3 151.7C764.3 148.7 768.3 142.7 768.3 135.7C768.3 125.7 760.3 117.7 750.3 117.7H720.3V196.2H700.3V81.7H750.3C771.3 81.7 788.3 98.7 788.3 121.2C788.3 136.7 780.3 149.2 768.8 156.2L795.3 196.2H784.8ZM720.3 100.2V136.2H750.3C759.8 136.2 762.3 127.2 762.3 121.2C762.3 111.2 757.8 100.2 750.3 100.2H720.3Z" fill="#231F20"/>
<path d="M895.9 81.7L869.4 139.2C868.9 140.2 868.4 140.7 867.4 140.7C866.4 140.7 865.9 140.2 865.4 139.2L838.9 81.7H816.4L856.4 157.2L841.9 196.2H854.9L867.4 167.2L879.9 196.2H892.9L878.4 157.2L918.4 81.7H895.9Z" fill="#231F20"/>
<path d="M1027 121C1027 98.5 1010 81.5 989 81.5H939V196H959V151H989C1010 151 1027 134 1027 111.5L1027 121ZM959 100H989C999.5 100 1007 108.5 1007 116C1007 123.5 999.5 132.5 989 132.5H959V100Z" fill="#231F20"/>
<path d="M211.5 0L0 250H108L211.5 125L315 250H423L211.5 0Z" fill="#A42014"/>
</svg>